<?xml version="1.0" encoding="UTF-8"?>
<svg width="50px" height="50px" viewBox="0 0 50 50" version="1.1" xmlns="http://www.w3.org/2000/svg" xmlns:xlink="http://www.w3.org/1999/xlink">
    <title>今日芯片注射数</title>
    <defs>
        <linearGradient x1="20.6272182%" y1="0%" x2="100%" y2="100%" id="linearGradient-1">
            <stop stop-color="#92DAFB" offset="0%"></stop>
            <stop stop-color="#61C0FF" offset="100%"></stop>
        </linearGradient>
        <path d="M27.4646021,42.4507235 L27.4646021,47.4407435 C27.4646021,48.8186995 26.347548,49.9357535 24.9695921,49.9357535 C23.5916361,49.9357535 22.4745821,48.8186995 22.4745821,47.4407435 L22.4745821,42.4507235 L17.4845621,42.4507235 L17.4845621,47.4407435 C17.4843512,48.8185503 16.367359,49.9357535 14.9895522,49.9357535 C13.6117453,49.9357535 12.4947531,48.8185503 12.4945422,47.4407435 L12.4945422,42.4507235 C12.4945422,42.308508 12.5070172,42.1712824 12.5294723,42.0365519 C10.3702839,41.2824598 8.67278596,39.5849619 7.91869386,37.4257735 C7.78198597,37.4499865 7.64335433,37.4616783 7.50452219,37.4607036 L2.51450225,37.4607036 C1.13669545,37.4604927 0.019492246,36.3435004 0.019492246,34.9656936 C0.019492246,33.5878868 1.13669545,32.4708946 2.51450225,32.4706837 L7.50452219,32.4706837 L7.50452219,27.4806637 L2.51450225,27.4806637 C1.13669545,27.4804527 0.019492246,26.3634605 0.019492246,24.9856537 C0.019492246,23.6078469 1.13669545,22.4908546 2.51450225,22.4906437 L7.50452219,22.4906437 L7.50452219,17.5006238 L2.51450225,17.5006238 C1.13654627,17.5006238 0.019492246,16.3835697 0.019492246,15.0056138 C0.019492246,13.6276578 1.13654627,12.5106038 2.51450225,12.5106038 L7.50452219,12.5106038 C7.64673775,12.5106038 7.78396332,12.5230788 7.91869386,12.545534 C8.66719686,10.3898453 10.3737837,8.6832585 12.5294723,7.93475551 C12.5064098,7.79789998 12.4947265,7.65936885 12.4945422,7.52058383 L12.4945422,2.53056389 C12.4944057,1.63909171 12.9699221,0.81527904 13.7419369,0.369503545 C14.5139517,-0.0762719505 15.4651526,-0.0762719505 16.2371674,0.369503545 C17.0091822,0.81527904 17.4846986,1.63909171 17.4845621,2.53056389 L17.4845621,7.52058383 L22.4745821,7.52058383 L22.4745821,2.53056389 C22.4745821,1.15260792 23.5916361,0.0351719234 24.9695921,0.0351719234 C26.347548,0.0351719234 27.4646021,1.15260792 27.4646021,2.53056389 L27.4646021,7.52058383 L32.454622,7.52058383 L32.454622,2.53056389 C32.4548329,1.1527571 33.5718252,0.0359358611 34.949632,0.0359358611 C36.3274388,0.0359358611 37.444431,1.1527571 37.4446419,2.53056389 L37.4446419,7.52058383 C37.4446419,7.66030437 37.4321669,7.80002497 37.4097118,7.93475551 C39.5654004,8.6832585 41.2719873,10.3898453 42.0204903,12.545534 C42.1571982,12.521321 42.2958298,12.5096291 42.4346619,12.5106038 L47.4246819,12.5106038 C48.8026378,12.5106038 49.9196918,13.6276578 49.9196918,15.0056138 C49.9196918,16.3835697 48.8026378,17.5006237 47.4246819,17.5006238 L42.4346619,17.5006238 L42.4346619,22.4906437 L47.4246819,22.4906437 C48.8024887,22.4908546 49.9196918,23.6078469 49.9196918,24.9856537 C49.9196918,26.3634605 48.8024887,27.4804527 47.4246819,27.4806637 L42.4346619,27.4806637 L42.4346619,32.4706837 L47.4246819,32.4706837 C48.8024887,32.4708946 49.9196918,33.5878868 49.9196918,34.9656936 C49.9196918,36.3435004 48.8024887,37.4604927 47.4246819,37.4607036 L42.4346619,37.4607036 C42.2924464,37.4607036 42.1552208,37.4482286 42.0204903,37.4257735 C41.2663982,39.5849619 39.5689002,41.2824598 37.4097118,42.0365519 C37.4346619,42.1712825 37.4446419,42.311003 37.4446419,42.4507235 L37.4446419,47.4407435 C37.444431,48.8185503 36.3274388,49.9357535 34.949632,49.9357535 C33.5718252,49.9357535 32.4548329,48.8185503 32.454622,47.4407435 L32.454622,42.4507235 L27.4646021,42.4507235 L27.4646021,42.4507235 Z M19.9795721,17.5006238 C18.6016162,17.5006238 17.4845621,18.6176778 17.4845621,19.9956337 L17.4845621,29.9756737 C17.4845621,31.3536296 18.6016162,32.4706837 19.9795721,32.4706837 L29.959612,32.4706837 C31.337568,32.4706837 32.454622,31.3536296 32.454622,29.9756737 L32.454622,19.9956337 C32.454622,18.6176778 31.337568,17.5006238 29.959612,17.5006238 L19.9795721,17.5006238 L19.9795721,17.5006238 Z" id="path-2"></path>
    </defs>
    <g id="页面-1" stroke="none" stroke-width="1" fill="none" fill-rule="evenodd">
        <g id="养犬政务微信" transform="translate(-105.000000, -1228.000000)" fill-rule="nonzero">
            <g id="形状" transform="translate(105.000000, 1228.000000)">
                <use fill="#000000" xlink:href="#path-2"></use>
                <use fill="url(#linearGradient-1)" xlink:href="#path-2"></use>
            </g>
        </g>
    </g>
</svg>