<?xml version="1.0" encoding="UTF-8"?>
<svg width="44px" height="44px" viewBox="0 0 44 44" version="1.1" xmlns="http://www.w3.org/2000/svg" xmlns:xlink="http://www.w3.org/1999/xlink">
    <title>芯片注射数</title>
    <defs>
        <linearGradient x1="20.6272182%" y1="0%" x2="100%" y2="100%" id="linearGradient-1">
            <stop stop-color="#92DAFB" offset="0%"></stop>
            <stop stop-color="#61C0FF" offset="100%"></stop>
        </linearGradient>
        <path d="M42.679816,24.1564231 L22.7840892,33.5629424 L22.7749642,33.5671125 L22.7657901,33.5713316 C22.2618046,33.8113293 21.694827,33.8113293 21.1908415,33.5713316 L21.1816675,33.5671125 L21.1725424,33.5629424 L1.27485324,24.1564231 C0.369416028,23.7242113 -0.144136028,22.6225371 0.0470478049,21.522531 C0.238182578,20.4224758 1.08106927,19.6287955 2.06235206,19.6248217 C2.33154007,19.6248217 2.60077714,19.6876176 2.84980181,19.8048691 L2.85897589,19.8069296 L2.86814997,19.8132092 L21.9782422,28.8492332 L41.0883836,19.8132092 L41.0957424,19.8069296 L41.1066826,19.8048201 C42.1478668,19.3547997 43.3134651,19.9313929 43.7391521,21.1068521 C44.16479,22.2824095 43.6965686,23.6318328 42.6816803,24.1543626 L42.679816,24.1564231 Z M42.679816,13.9503364 L22.7840892,23.3610258 L22.7749642,23.3652449 L22.7657901,23.3715245 C22.2618537,23.6117675 21.694778,23.6117675 21.1908415,23.3715245 L21.1816675,23.3652449 L21.1725424,23.3610258 L1.27485324,13.952446 C0.50496669,13.5872491 0.00318885017,12.7282709 0.00318885017,11.7755897 C0.00318885017,10.8228594 0.50496669,9.96388125 1.27485324,9.59873338 L21.1724934,0.190153589 L21.1816184,0.185934495 L21.1907925,0.179654913 C21.694827,-0.059901324 22.2616574,-0.059901324 22.765741,0.179654913 L22.7749151,0.185934495 L22.7840401,0.19010453 L42.6816803,9.59873338 C43.453382,9.96152641 43.9570732,10.8208479 43.9570732,11.7745104 C43.9570732,12.7282219 43.453333,13.5875434 42.6816803,13.9503364 L42.679816,13.9503364 L42.679816,13.9503364 Z M2.06416725,29.8287979 C2.33335526,29.8287979 2.60077714,29.8916438 2.85166606,30.0087972 L2.86079108,30.0109068 L2.86814997,30.0150768 L21.9782422,39.0532594 L41.0883836,30.0150768 L41.0975576,30.0109068 L41.1066826,30.0067367 C42.1478668,29.5567164 43.3134651,30.1332605 43.7391521,31.3087688 C44.16479,32.4843261 43.6965686,33.8337003 42.6816803,34.3562302 L42.6816803,34.3604493 L22.7840401,43.7690291 C22.7815872,43.7703047 22.7791342,43.7717274 22.7767303,43.7732482 L22.7675562,43.7774183 C22.2635217,44.0169745 21.6966913,44.0169745 21.1926077,43.7774183 L21.1816184,43.7732482 L21.1724934,43.7690291 L1.27485324,34.3604493 C0.365344111,33.9316716 -0.151985505,32.8277408 0.0396889199,31.7248401 C0.231314286,30.6219395 1.07851819,29.8277686 2.06235206,29.8287979 L2.06416725,29.8287979 L2.06416725,29.8287979 Z" id="path-2"></path>
    </defs>
    <g id="页面-1" stroke="none" stroke-width="1" fill="none" fill-rule="evenodd">
        <g id="养犬政务微信" transform="translate(-404.000000, -1231.000000)" fill-rule="nonzero">
            <g id="形状" transform="translate(404.000000, 1231.000000)">
                <use fill="#000000" xlink:href="#path-2"></use>
                <use fill="url(#linearGradient-1)" xlink:href="#path-2"></use>
            </g>
        </g>
    </g>
</svg>