<?xml version="1.0" encoding="UTF-8"?>
<svg width="40px" height="42px" viewBox="0 0 40 42" version="1.1" xmlns="http://www.w3.org/2000/svg" xmlns:xlink="http://www.w3.org/1999/xlink">
    <title>本月申请数</title>
    <defs>
        <linearGradient x1="23.4919991%" y1="0%" x2="95.1234091%" y2="100%" id="linearGradient-1">
            <stop stop-color="#92DAFB" offset="0%"></stop>
            <stop stop-color="#61C0FF" offset="100%"></stop>
        </linearGradient>
    </defs>
    <g id="页面-1" stroke="none" stroke-width="1" fill="none" fill-rule="evenodd">
        <g id="养犬政务微信" transform="translate(-110.000000, -1072.000000)" fill="url(#linearGradient-1)" fill-rule="nonzero">
            <g id="本月申请数" transform="translate(110.000000, 1072.000000)">
                <path d="M39.8063249,12.5701722 L39.8063249,39.8063249 C39.8063249,40.7325973 38.6695359,41.9021332 37.7105165,41.9021332 L37.7105165,41.9021332 L2.09580838,41.9021332 C1.13678892,41.9021332 5.68434189e-14,40.7325973 5.68434189e-14,39.8063249 L5.68434189e-14,39.8063249 L5.68434189e-14,12.5701722 L39.8063249,12.5701722 Z M27.18,17.702 L12.954,17.702 L12.954,28.763 L12.9428502,29.1887875 C12.8470873,31.7171959 12.2317944,33.7720832 11.0982259,35.3627357 L11.0982259,35.3627357 L10.7124936,35.9040052 L13.5017128,38.4491677 L13.9949349,37.7729761 L14.2331216,37.4340668 L14.4601535,37.0857506 C15.4197924,35.5560505 16.0652938,33.762407 16.3973891,31.7181001 L16.3973891,31.7181001 L16.441,31.424 L23.454,31.424 L23.454,34.118 L23.4568919,34.1728206 L23.465,34.207 L23.0286035,34.20153 L22.4344596,34.1821413 C22.3308606,34.1778351 22.2248461,34.172992 22.1162236,34.1676126 L22.1162236,34.1676126 L21.4316563,34.1289065 L20.0091241,34.0328808 L21.0281372,37.745 L24.288,37.745 L24.4818451,37.7410938 C26.1992772,37.6708821 27.18,36.6568316 27.18,34.916 L27.18,34.916 L27.18,17.702 Z M23.454,26.279 L23.454,27.887 L16.659,27.887 L16.659,26.279 L23.454,26.279 Z M23.454,21.302 L23.454,22.741 L16.659,22.741 L16.659,21.302 L23.454,21.302 Z M12.5701722,-1.13686838e-13 L12.5701722,4.19161677 L27.2361527,4.19161677 L27.2361527,-1.13686838e-13 L31.4277695,-1.13686838e-13 L31.4277695,4.19161677 L37.7151946,4.19161677 C39.258982,4.19161677 39.8063249,5.77750749 39.8063249,6.70845808 L39.8063249,6.70845808 L39.8063249,10.4790419 L5.68434189e-14,10.4790419 L5.68434189e-14,6.28742515 C5.68434189e-14,5.36115269 1.13678892,4.19161677 2.09580838,4.19161677 L2.09580838,4.19161677 L8.37855539,4.19161677 L8.37855539,-1.13686838e-13 L12.5701722,-1.13686838e-13 Z" id="形状结合"></path>
            </g>
        </g>
    </g>
</svg>