<?xml version="1.0" encoding="UTF-8"?>
<svg width="40px" height="40px" viewBox="0 0 40 40" version="1.1" xmlns="http://www.w3.org/2000/svg" xmlns:xlink="http://www.w3.org/1999/xlink">
    <title>本月通过数</title>
    <defs>
        <linearGradient x1="20.6272182%" y1="0.0657679146%" x2="100%" y2="99.9342321%" id="linearGradient-1">
            <stop stop-color="#92DAFB" offset="0%"></stop>
            <stop stop-color="#61C0FF" offset="100%"></stop>
        </linearGradient>
        <path d="M4.21907758,5.73899371 L4.21907758,11.3731656 C4.21907758,12.1899022 4.85019219,12.866391 5.64882487,12.9390357 L5.79140463,12.9454927 L34.0932914,12.9454927 C34.910028,12.9454927 35.5865168,12.3143781 35.6591615,11.5157454 L35.6656185,11.3731656 L35.6656185,5.73899371 L38.2599581,5.73899371 C39.0766946,5.73899371 39.7531835,6.34673372 39.8258281,7.16484523 L39.8322851,7.31132075 L39.8322851,38.2337526 C39.8322851,39.0504892 39.2011705,39.726978 38.4025378,39.7996226 L38.2599581,39.8060796 L1.57232704,39.8060796 C0.755590496,39.8060796 0.0791016383,39.174965 0.00645700149,38.3763324 L4.61852778e-13,38.2337526 L4.61852778e-13,7.31132075 C4.61852778e-13,6.49458421 0.631114605,5.81809535 1.42974728,5.74545071 L1.57232704,5.73899371 L4.21907758,5.73899371 Z M27.4675064,17 L13.2415064,17 L13.2415064,28.061 L13.2303566,28.4867875 C13.1345937,31.0151959 12.5193007,33.0700832 11.3857323,34.6607357 L11.3857323,34.6607357 L11,35.2020052 L13.7892192,37.7471677 L14.2824413,37.0709761 L14.520628,36.7320668 L14.7476599,36.3837506 C15.7072988,34.8540505 16.3528002,33.060407 16.6848954,31.0161001 L16.6848954,31.0161001 L16.7285064,30.722 L23.7415064,30.722 L23.7415064,33.416 L23.7443983,33.4708206 L23.7525064,33.505 L23.3161099,33.49953 L22.7219659,33.4801413 C22.618367,33.4758351 22.5123524,33.470992 22.40373,33.4656126 L22.40373,33.4656126 L21.7191627,33.4269065 L20.2966305,33.3308808 L21.3156436,37.043 L24.5755064,37.043 L24.7693515,37.0390938 C26.4867836,36.9688821 27.4675064,35.9548316 27.4675064,34.214 L27.4675064,34.214 L27.4675064,17 Z M23.7415064,25.577 L23.7415064,27.185 L16.9465064,27.185 L16.9465064,25.577 L23.7415064,25.577 Z M23.7415064,20.6 L23.7415064,22.039 L16.9465064,22.039 L16.9465064,20.6 L23.7415064,20.6 Z M22.6677149,-5.95079541e-13 C22.8904612,0.227113904 23.077539,0.420743065 23.2592787,0.605273112 L23.3799805,0.727212733 L23.438987,0.786300747 L23.438987,0.786300747 L23.6189317,0.963875986 C24.4142563,1.73925063 25.4709814,2.63857843 29.0926245,5.51388747 L29.3763103,5.73899371 L29.3763103,8.54297696 C29.3763103,9.3597135 28.7919449,10.0362024 27.9985066,10.108847 L27.8563942,10.115304 L12.0020965,10.115304 C11.1853599,10.115304 10.4854964,9.48418935 10.4102546,8.66348065 L10.403564,8.51677147 L10.403564,5.73899371 C14.4411445,2.59433962 15.5166823,1.75030123 16.3674841,0.93821584 L16.5562769,0.755078743 L16.7444136,0.567277507 C16.8711592,0.439245847 17.0020866,0.304276394 17.1464342,0.15471241 L17.2955975,-5.95079541e-13 L22.6677149,-5.95079541e-13 Z M19.8637317,2.8825996 C18.7106918,2.85639411 17.6624738,3.53773585 17.1907757,4.61215935 C16.7190776,5.68658284 16.9287212,6.94444448 17.7148847,7.75681343 C18.2651992,8.33333333 18.9989518,8.64779874 19.7589099,8.64779874 C20.0995807,8.64779874 20.4664571,8.56918239 20.8071279,8.43815512 C21.8815514,8.01886792 22.5890986,6.94444443 22.5890986,5.76519915 C22.615304,4.21907758 21.3836478,2.93501051 19.8637317,2.8825996 Z" id="path-2"></path>
    </defs>
    <g id="页面-1" stroke="none" stroke-width="1" fill="none" fill-rule="evenodd">
        <g id="养犬政务微信" transform="translate(-406.000000, -1073.000000)" fill-rule="nonzero">
            <g id="形状结合" transform="translate(406.000000, 1073.000000)">
                <use fill="#000000" xlink:href="#path-2"></use>
                <use fill="url(#linearGradient-1)" xlink:href="#path-2"></use>
            </g>
        </g>
    </g>
</svg>