<?xml version="1.0" encoding="UTF-8"?>
<svg width="40px" height="42px" viewBox="0 0 40 42" version="1.1" xmlns="http://www.w3.org/2000/svg" xmlns:xlink="http://www.w3.org/1999/xlink">
    <title>今日申请数</title>
    <defs>
        <linearGradient x1="23.4919991%" y1="0%" x2="95.1234091%" y2="100%" id="linearGradient-1">
            <stop stop-color="#92DAFB" offset="0%"></stop>
            <stop stop-color="#61C0FF" offset="100%"></stop>
        </linearGradient>
    </defs>
    <g id="页面-1" stroke="none" stroke-width="1" fill="none" fill-rule="evenodd">
        <g id="养犬政务微信" transform="translate(-110.000000, -912.000000)" fill="url(#linearGradient-1)" fill-rule="nonzero">
            <g id="今日申请数" transform="translate(110.000000, 912.000000)">
                <path d="M37.7151946,4.23372006 L31.4277695,4.23372006 L31.4277695,0.0421032934 L27.2361527,0.0421032934 L27.2361527,4.23372006 L12.5701722,4.23372006 L12.5701722,0.0421032934 L8.37855539,0.0421032934 L8.37855539,4.23372006 L2.09580838,4.23372006 C1.13678892,4.23372006 0,5.40325599 0,6.32952844 L0,10.5211452 L39.8063249,10.5211452 L39.8063249,6.75056138 C39.8063249,5.81961078 39.258982,4.23372006 37.7151946,4.23372006 Z M0,12.6122754 L0,39.8484281 C0,40.7747006 1.13678892,41.9442365 2.09580838,41.9442365 L37.7105165,41.9442365 C38.6695359,41.9442365 39.8063249,40.7747006 39.8063249,39.8484281 L39.8063249,12.6122754 L0,12.6122754 Z M27.5683009,30.4968189 C26.2584207,32.1341692 24.2982784,34.2861153 21.678518,36.9573353 L18.815494,35.2404566 C19.5218937,34.5855165 20.6165793,33.4674401 22.0855165,31.8862275 C22.5767216,31.2874251 22.9322605,30.8757485 23.1474551,30.6605539 L12.1959207,30.6605539 L12.1959207,27.5542665 L19.7183757,27.5542665 C19.0072979,26.5718563 18.165232,25.5379865 17.1828219,24.447979 L19.6341692,22.6468937 C20.3967066,23.4094311 21.3791168,24.447979 22.5767216,25.7531811 L20.2095808,27.5542665 L27.5683009,27.5542665 L27.5683009,30.4968189 L27.5683009,30.4968189 Z M28.6349177,26.8993263 C24.7614147,24.8830464 21.9545284,22.754491 20.2095808,20.5183383 C17.9734281,22.9696856 15.0028069,25.1543787 11.2977171,27.0583832 C11.1901198,26.6794536 10.970247,26.1321108 10.6427769,25.4210329 C10.3714446,24.7146332 10.1515719,24.1953593 9.98783683,23.8678892 C14.1841317,21.7954716 17.0752246,19.5359281 18.6564371,17.0799027 L22.6656063,17.2436377 C22.5018713,17.5711078 22.3100674,17.870509 22.0948728,18.1418413 C24.1672904,20.377994 26.8665793,22.2024701 30.1927395,23.6199476 C29.425524,25.1543787 28.90625,26.2443862 28.6349177,26.8993263 L28.6349177,26.8993263 Z" id="形状"></path>
            </g>
        </g>
    </g>
</svg>