<?xml version="1.0" encoding="UTF-8"?>
<svg width="40px" height="40px" viewBox="0 0 40 40" version="1.1" xmlns="http://www.w3.org/2000/svg" xmlns:xlink="http://www.w3.org/1999/xlink">
    <title>今日通过数</title>
    <defs>
        <linearGradient x1="20.6272182%" y1="0.0657679146%" x2="100%" y2="99.9342321%" id="linearGradient-1">
            <stop stop-color="#92DAFB" offset="0%"></stop>
            <stop stop-color="#61C0FF" offset="100%"></stop>
        </linearGradient>
        <path d="M4.21907758,5.73899371 L4.21907758,11.3731656 C4.21907758,12.1899022 4.85019219,12.866391 5.64882487,12.9390357 L5.79140463,12.9454927 L34.0932914,12.9454927 C34.910028,12.9454927 35.5865168,12.3143781 35.6591615,11.5157454 L35.6656185,11.3731656 L35.6656185,5.73899371 L38.2599581,5.73899371 C39.0766946,5.73899371 39.7531835,6.34673372 39.8258281,7.16484523 L39.8322851,7.31132075 L39.8322851,38.2337526 C39.8322851,39.0504892 39.2011705,39.726978 38.4025378,39.7996226 L38.2599581,39.8060796 L1.57232704,39.8060796 C0.755590496,39.8060796 0.0791016383,39.174965 0.00645700149,38.3763324 L7.10542736e-15,38.2337526 L7.10542736e-15,7.31132075 C7.10542736e-15,6.49458421 0.631114605,5.81809535 1.42974728,5.74545071 L1.57232704,5.73899371 L4.21907758,5.73899371 Z M19.6463323,22.566991 L17.194985,24.3680763 C18.1773952,25.4580838 19.0194611,26.4919536 19.7305389,27.4743638 L19.7305389,27.4743638 L12.2080838,27.4743638 L12.2080838,30.5806512 L23.1596183,30.5806512 C22.9444237,30.7958458 22.5888847,31.2075225 22.0976796,31.8063249 C20.6287425,33.3875374 19.5340569,34.5056138 18.8276572,35.1605539 L18.8276572,35.1605539 L21.6906811,36.8774326 C24.3104416,34.2062126 26.2705838,32.0542665 27.5804641,30.4169162 L27.5804641,30.4169162 L27.5804641,27.4743638 L20.221744,27.4743638 L22.5888847,25.6732784 C21.3912799,24.3680763 20.4088698,23.3295284 19.6463323,22.566991 L19.6463323,22.566991 Z M18.6686003,17 C17.0873877,19.4560254 14.1962949,21.7155689 10,23.7879865 C10.163735,24.1154566 10.3836078,24.6347305 10.6549401,25.3411302 C10.9824102,26.0522081 11.2022829,26.5995509 11.3098802,26.9784805 C15.0149701,25.074476 17.9855913,22.8897829 20.221744,20.4384356 C21.9666916,22.6745883 24.7735778,24.8031437 28.6470808,26.8194237 C28.9184132,26.1644835 29.4376871,25.074476 30.2049027,23.5400449 C26.8787425,22.1225674 24.1794536,20.2980913 22.1070359,18.0619386 C22.3222305,17.7906063 22.5140344,17.4912051 22.6777695,17.163735 L22.6777695,17.163735 Z M22.6677149,-5.31130695e-13 C22.8904612,0.227113904 23.077539,0.420743065 23.2592787,0.605273112 L23.3799805,0.727212733 L23.438987,0.786300747 L23.438987,0.786300747 L23.6189317,0.963875986 C24.4142563,1.73925063 25.4709814,2.63857843 29.0926245,5.51388747 L29.3763103,5.73899371 L29.3763103,8.54297696 C29.3763103,9.3597135 28.7919449,10.0362024 27.9985066,10.108847 L27.8563942,10.115304 L12.0020965,10.115304 C11.1853599,10.115304 10.4854964,9.48418935 10.4102546,8.66348065 L10.403564,8.51677147 L10.403564,5.73899371 C14.4411445,2.59433962 15.5166823,1.75030123 16.3674841,0.93821584 L16.5562769,0.755078743 L16.7444136,0.567277507 C16.8711592,0.439245847 17.0020866,0.304276394 17.1464342,0.15471241 L17.2955975,-5.31130695e-13 L22.6677149,-5.31130695e-13 Z M19.8637317,2.8825996 C18.7106918,2.85639411 17.6624738,3.53773585 17.1907757,4.61215935 C16.7190776,5.68658284 16.9287212,6.94444448 17.7148847,7.75681343 C18.2651992,8.33333333 18.9989518,8.64779874 19.7589099,8.64779874 C20.0995807,8.64779874 20.4664571,8.56918239 20.8071279,8.43815512 C21.8815514,8.01886792 22.5890986,6.94444443 22.5890986,5.76519915 C22.615304,4.21907758 21.3836478,2.93501051 19.8637317,2.8825996 Z" id="path-2"></path>
    </defs>
    <g id="页面-1" stroke="none" stroke-width="1" fill="none" fill-rule="evenodd">
        <g id="养犬政务微信" transform="translate(-406.000000, -913.000000)" fill-rule="nonzero">
            <g id="形状结合" transform="translate(406.000000, 913.000000)">
                <use fill="#000000" xlink:href="#path-2"></use>
                <use fill="url(#linearGradient-1)" xlink:href="#path-2"></use>
            </g>
        </g>
    </g>
</svg>